<svg enable-background="new 0 0 24 24" height="512" viewBox="0 0 24 24" width="512" xmlns="http://www.w3.org/2000/svg"><path d="m17.5 11c0 .55-.45 1-1 1-.15 0-.29-.03-.42-.09l-4.08-1.91-4.08 1.91c-.13.06-.27.09-.42.09-.55 0-1-.45-1-1 0-.15.03-.28.09-.41l4.5-10c.15-.35.5-.59.91-.59s.76.24.91.59l4.5 10c.06.13.09.26.09.41z" fill="#b4deff"/><path d="m12 24c-6.065 0-11-4.935-11-11 0-3.335 1.484-6.444 4.073-8.529.431-.348 1.06-.278 1.406.151.346.43.278 1.06-.152 1.406-2.114 1.704-3.327 4.245-3.327 6.972 0 4.962 4.037 9 9 9s9-4.038 9-9c0-2.728-1.213-5.268-3.327-6.971-.431-.346-.498-.976-.152-1.406.348-.429.976-.499 1.406-.151 2.589 2.084 4.073 5.193 4.073 8.528 0 6.065-4.935 11-11 11z" fill="#cfd8dc"/><path d="m12 0c-.41 0-.76.24-.91.59l-4.5 10c-.06.13-.09.26-.09.41 0 .55.45 1 1 1 .15 0 .29-.03.42-.09l4.08-1.91z" fill="#5bb0f3"/><path d="m5.699 4.249c-.22 0-.441.072-.626.222-2.589 2.085-4.073 5.194-4.073 8.529 0 6.065 4.935 11 11 11v-2c-4.963 0-9-4.038-9-9 0-2.728 1.213-5.268 3.327-6.971.431-.346.498-.976.152-1.406-.197-.246-.487-.374-.78-.374z" fill="#b4bcc0"/></svg>